<svg width="135" height="135" viewBox="0 0 135 135" fill="none" xmlns="http://www.w3.org/2000/svg">
<g opacity="0.5">
<circle cx="67.5" cy="67.5" r="67" stroke="black" stroke-opacity="0.1"/>
<path d="M52 63.5V60.5C52 56 55 53 59.5 53H74.5C79 53 82 56 82 60.5V63.5M52 72.5V75.5C52 80 55 83 59.5 83H74.5C79 83 82 80 82 75.5V72.5" stroke="black" stroke-width="1.5" stroke-miterlimit="10" stroke-linecap="round" stroke-linejoin="round"/>
<path d="M59.0508 63.8901L67.0008 68.4951L74.8908 63.9201M67.0008 76.6551V68.4801" stroke="black" stroke-width="1.5" stroke-linecap="round" stroke-linejoin="round"/>
<path d="M65.1394 59.4348L60.3394 62.1048C59.2594 62.7048 58.3594 64.2198 58.3594 65.4648V70.5498C58.3594 71.7948 59.2444 73.3098 60.3394 73.9098L65.1394 76.5798C66.1594 77.1498 67.8394 77.1498 68.8744 76.5798L73.6744 73.9098C74.7544 73.3098 75.6544 71.7948 75.6544 70.5498V65.4648C75.6544 64.2198 74.7694 62.7048 73.6744 62.1048L68.8744 59.4348C67.8394 58.8498 66.1594 58.8498 65.1394 59.4348Z" stroke="black" stroke-width="1.5" stroke-linecap="round" stroke-linejoin="round"/>
</g>
</svg>
