<svg width="54" height="24" viewBox="0 0 54 24" fill="none" xmlns="http://www.w3.org/2000/svg">
<path d="M16.7715 15.064L12.8995 15.128C12.1955 15.128 11.1182 15.1173 9.6675 15.096C8.23817 15.0747 7.22483 15.0533 6.6275 15.032L5.8275 16.984C5.42217 17.9653 5.1235 18.808 4.9315 19.512C4.7395 20.216 4.6435 20.792 4.6435 21.24C4.6435 21.752 4.8035 22.136 5.1235 22.392C5.4435 22.6267 5.93417 22.744 6.5955 22.744C6.68083 22.744 6.76617 22.744 6.8515 22.744C6.95817 22.7227 7.1075 22.7013 7.2995 22.68C7.40617 22.6587 7.47017 22.648 7.4915 22.648C7.53417 22.648 7.56617 22.648 7.5875 22.648C7.6515 22.648 7.70483 22.6693 7.7475 22.712C7.79017 22.7333 7.8115 22.7653 7.8115 22.808C7.8115 22.872 7.7795 22.9253 7.7155 22.968C7.6515 22.9893 7.5555 23 7.4275 23C7.25683 23 7.02217 23 6.7235 23C6.42483 23 5.90217 22.9893 5.1555 22.968C4.62217 22.9467 4.24883 22.936 4.0355 22.936C3.8435 22.936 3.70483 22.936 3.6195 22.936C3.5555 22.936 3.4595 22.936 3.3315 22.936C3.22483 22.936 3.03283 22.9467 2.7555 22.968C2.28617 22.9893 1.93417 23 1.6995 23C1.48617 23 1.29417 23 1.1235 23C1.0595 23 1.01683 22.9893 0.9955 22.968C0.952833 22.9253 0.9315 22.8827 0.9315 22.84C0.9315 22.8187 0.952833 22.7973 0.9955 22.776C1.03817 22.7333 1.08083 22.712 1.1235 22.712H1.2515C1.6355 22.712 1.9875 22.5947 2.3075 22.36C2.64883 22.1253 2.99017 21.7413 3.3315 21.208C3.6515 20.6747 3.98217 20.0453 4.3235 19.32C4.68617 18.5947 5.0595 17.7627 5.4435 16.824L11.9715 0.823999C11.9928 0.781332 12.0142 0.759998 12.0355 0.759998C12.0782 0.738665 12.1315 0.727999 12.1955 0.727999H12.4515C12.5368 0.727999 12.6008 0.738665 12.6435 0.759998C12.6862 0.759998 12.7182 0.781332 12.7395 0.823999L19.2995 16.472C19.6835 17.368 20.0035 18.1147 20.2595 18.712C20.5155 19.288 20.7395 19.7787 20.9315 20.184C21.4222 21.1653 21.8488 21.8373 22.2115 22.2C22.5742 22.5413 23.0755 22.712 23.7155 22.712H23.9715C24.0355 22.712 24.0888 22.7227 24.1315 22.744C24.1742 22.7653 24.1955 22.7973 24.1955 22.84C24.1955 22.8827 24.1742 22.9253 24.1315 22.968C24.1102 22.9893 24.0675 23 24.0035 23C23.8115 23 23.5662 23 23.2675 23C22.9902 22.9787 22.5528 22.9573 21.9555 22.936C21.5715 22.9147 21.3048 22.904 21.1555 22.904C21.0062 22.904 20.8995 22.904 20.8355 22.904C20.7715 22.904 20.6542 22.904 20.4835 22.904C20.3128 22.904 20.0035 22.9147 19.5555 22.936C18.8302 22.9573 18.3075 22.9787 17.9875 23C17.6675 23 17.4115 23 17.2195 23C17.0915 23 17.0168 22.9573 16.9955 22.872C16.9955 22.7653 17.0595 22.712 17.1875 22.712H18.1795C18.8195 22.712 19.1608 22.5093 19.2035 22.104C19.2675 21.6987 19.1075 20.952 18.7235 19.864C18.5742 19.4587 18.3928 18.9787 18.1795 18.424C17.9662 17.8693 17.6995 17.2187 17.3795 16.472L16.7715 15.064ZM6.7235 14.776L12.7075 14.744H16.6435L11.5875 2.744L6.7235 14.776ZM27.5855 23.16C27.1588 23.16 26.8068 23.0213 26.5295 22.744C26.2522 22.4453 26.1135 22.0933 26.1135 21.688C26.1135 21.2827 26.2522 20.9413 26.5295 20.664C26.8282 20.3653 27.1802 20.216 27.5855 20.216C27.9908 20.216 28.3322 20.3653 28.6095 20.664C28.8868 20.9413 29.0255 21.2827 29.0255 21.688C29.0255 22.0933 28.8868 22.4453 28.6095 22.744C28.3322 23.0213 27.9908 23.16 27.5855 23.16ZM50.2595 22.36C48.9795 22.744 47.9235 23 47.0915 23.128C46.2808 23.256 45.4808 23.32 44.6915 23.32C41.1502 23.32 38.2382 22.2533 35.9555 20.12C33.6942 17.9867 32.5635 15.256 32.5635 11.928C32.5635 8.6 33.7368 5.86933 36.0835 3.736C38.4302 1.58133 41.3742 0.504 44.9155 0.504C46.2168 0.504 47.6355 0.642666 49.1715 0.919998C50.7075 1.19733 51.9128 1.528 52.7875 1.912L53.1715 8.728C53.1928 8.856 53.1502 8.93067 53.0435 8.952C52.9582 8.97333 52.9048 8.90933 52.8835 8.76C52.7555 7.43733 52.5635 6.30667 52.3075 5.368C52.0515 4.408 51.7422 3.68267 51.3795 3.192C50.7822 2.424 49.9182 1.83733 48.7875 1.432C47.6568 1.02667 46.3555 0.823999 44.8835 0.823999C41.8115 0.823999 39.3368 1.83733 37.4595 3.864C35.6035 5.89067 34.6755 8.57867 34.6755 11.928C34.6755 15.2987 35.5928 17.9867 37.4275 19.992C39.2622 21.9973 41.7155 23 44.7875 23C46.0035 23 47.1875 22.84 48.3395 22.52C49.5128 22.2 50.6328 21.72 51.6995 21.08C51.7422 20.9733 51.7635 20.7387 51.7635 20.376C51.7848 19.992 51.7955 18.8827 51.7955 17.048C51.7955 16.28 51.7848 15.5333 51.7635 14.808C51.7635 14.0613 51.7528 13.592 51.7315 13.4C51.4542 13.3573 51.1022 13.3253 50.6755 13.304C50.2488 13.2613 49.7688 13.2293 49.2355 13.208C48.4462 13.1653 47.4115 13.1333 46.1315 13.112C44.8728 13.0907 43.6995 13.08 42.6115 13.08C42.5048 13.08 42.4515 13.048 42.4515 12.984C42.4728 12.8987 42.5368 12.856 42.6435 12.856C44.9688 12.856 46.9422 12.8347 48.5635 12.792C50.2062 12.728 51.8168 12.632 53.3955 12.504C53.4382 12.504 53.4808 12.536 53.5235 12.6C53.5662 12.6427 53.5875 12.696 53.5875 12.76C53.5662 13.848 53.5555 15.0853 53.5555 16.472C53.5555 17.8373 53.5555 20.0347 53.5555 23.064C53.5555 23.1493 53.5235 23.192 53.4595 23.192C53.4168 23.192 53.3635 23.16 53.2995 23.096C53.0648 22.8613 52.8195 22.648 52.5635 22.456C52.3075 22.2427 52.0728 22.0827 51.8595 21.976C51.7102 21.9973 51.5288 22.04 51.3155 22.104C51.1022 22.1467 50.7502 22.232 50.2595 22.36Z" fill="black"/>
</svg>
