<svg width="32" height="32" viewBox="0 0 32 32" fill="none" xmlns="http://www.w3.org/2000/svg">
<path d="M22.8067 18.2313C19.9513 18.2313 17.6364 15.9 17.6364 13.0244C17.6364 10.1493 19.9513 7.818 22.8067 7.818C25.6622 7.818 27.9771 10.1493 27.9771 13.0244L28 13.7684C28 19.5196 23.3702 24.1816 17.6593 24.1816V21.2062C19.6322 21.2062 21.4873 20.4327 22.882 19.0276C23.1509 18.7576 23.3958 18.4696 23.6167 18.1675C23.3527 18.2095 23.0822 18.2313 22.8067 18.2313ZM9.17036 18.2313C6.31491 18.2313 4 15.9 4 13.0244C4 10.1493 6.31491 7.818 9.17036 7.818C12.0258 7.818 14.3407 10.1493 14.3407 13.0244L14.3636 13.7684C14.3636 19.5196 9.73382 24.1816 4.02291 24.1816V21.2062C5.99582 21.2062 7.85091 20.4327 9.24564 19.0276C9.51455 18.7576 9.75946 18.4696 9.98037 18.1675C9.71637 18.2095 9.44582 18.2313 9.17036 18.2313Z" fill="#5F6D7E"/>
</svg>
